<?xml version="1.0" encoding="utf-8"?>
<!-- Generator: Adobe Illustrator 21.0.0, SVG Export Plug-In . SVG Version: 6.00 Build 0)  -->
<svg version="1.1" id="Calque_1" xmlns="http://www.w3.org/2000/svg" xmlns:xlink="http://www.w3.org/1999/xlink" x="0px" y="0px"
	 viewBox="0 0 525.9 154.4" style="enable-background:new 0 0 525.9 154.4;" xml:space="preserve">
<style type="text/css">
	.st0{fill:#139888;}
	.st1{fill:#F79810;}
	.st2{fill:#214475;}
	.st3{fill:#D91455;}
</style>
<title>Logo Scalechanger OKLogo mediacenter partium 1</title>
<g id="Calque_2">
	<g id="Layer_1">
		<path class="st0" d="M95.3,14.6c-2,4.7-7.5,6.9-12.2,4.9l-0.4-0.2l-2.1-1.4c-2-1.3-4-2.4-6.2-3.3c-22.1-9.5-47.6,0.7-57.2,22.7V37
			C28.9,9.7,58.5-5.3,87.4,1.6l3.3,0.9C95.2,4.6,97.3,10,95.3,14.6z"/>
		<path class="st0" d="M17.4,139.8c2.1-4.7,7.5-6.8,12.2-4.8l0.4,0.2l2.1,1.4c2,1.3,4,2.4,6.2,3.3c22.1,9.4,47.6-0.8,57.1-22.8v0.3
			c-11.7,27.3-41.2,42.2-70.1,35.4l-3.3-0.9C17.5,149.8,15.4,144.4,17.4,139.8z"/>
		<path class="st1" d="M62.6,104c0-5.1-4.1-9.2-9.2-9.3h-0.5l-2.5,0.5c-2.3,0.4-4.7,0.5-7,0.5C19.4,95.6-0.1,76,0,52v0.3
			c-0.2,29.7,21,55.1,50.2,60.4l3.4,0.5C58.6,113,62.5,109,62.6,104z"/>
		<path class="st2" d="M106.4,29.7c-4,4.2-10.5,4.3-14.7,0.4c-0.1-0.1-0.1-0.1-0.2-0.2l-0.4-0.4l-1.6-2.4c-1.5-2.2-3.2-4.3-5-6.2
			C65.8,1.5,34.5,2,14.6,22l0.3-0.3C39.8-3.5,77.5-6.7,104,12.4l3.1,2.4C110.8,19.2,110.5,25.7,106.4,29.7z"/>
		<path class="st3" d="M66.3,104.9c1.4-5.6-2-11.2-7.5-12.6c-0.1,0-0.2,0-0.3-0.1H55c-2.7-0.1-5.3-0.4-7.9-0.9
			c-26.5-5.4-42.8-32-36.6-59.6v0.4c-7.9,34.4,9.5,68,39.9,80.1l3.6,1.3C59.7,114.3,65.1,110.6,66.3,104.9z"/>
		<path class="st1" d="M50.1,50.4c0,5.1,4.1,9.2,9.2,9.3h0.5l2.5-0.5c2.3-0.4,4.7-0.5,7-0.5c24,0.2,43.4,19.7,43.3,43.7v-0.3
			c0.2-29.6-20.9-55.1-50.1-60.4l-3.4-0.5C54.1,41.4,50.2,45.4,50.1,50.4z"/>
		<path class="st2" d="M6.4,124.7c4-4.2,10.5-4.3,14.7-0.4c0.1,0.1,0.1,0.1,0.2,0.2l0.4,0.4l1.6,2.4c1.5,2.2,3.2,4.3,5,6.2
			c18.7,19.5,50,19,69.9-1l-0.3,0.3c-25,25.1-62.7,28.3-89.2,9.2l-3.1-2.4C1.9,135.2,2.3,128.7,6.4,124.7z"/>
		<path class="st3" d="M46.5,49.5c-1.4,5.6,2,11.2,7.5,12.6c0.1,0,0.2,0,0.3,0.1h3.5c2.7,0.1,5.3,0.4,7.9,0.9
			c26.5,5.4,42.8,32,36.6,59.6v-0.4c7.9-34.6-9.6-68.2-39.9-80.3l-3.6-1.3C53,39.9,47.6,43.8,46.5,49.5z"/>
		<path class="st2" d="M158.9,87.8c-0.8,1.4-2,2.5-3.4,3.3c-1.7,0.9-3.7,1.3-5.6,1.3c-2,0-4-0.4-5.8-1.2c-1.6-0.7-3-1.9-4-3.3
			c-1-1.4-1.6-3-1.7-4.7h4.5c0.1,1,0.5,1.9,1,2.7c0.6,0.9,1.4,1.7,2.3,2.2c1.1,0.6,2.4,0.9,3.7,0.9c1.6,0.1,3.1-0.4,4.3-1.5
			c1-1,1.5-2.4,1.5-3.8c0.1-1.2-0.3-2.4-1-3.3c-0.7-0.9-1.6-1.5-2.6-2c-1.4-0.6-2.8-1.2-4.2-1.6c-1.7-0.5-3.4-1.2-5-1.9
			c-1.3-0.6-2.4-1.6-3.2-2.7c-0.9-1.4-1.4-3.1-1.3-4.8c0-1.6,0.4-3.1,1.2-4.5c0.9-1.3,2.1-2.4,3.5-3c1.7-0.8,3.5-1.1,5.4-1.1
			c2.8-0.2,5.5,0.6,7.7,2.3c1.8,1.5,3,3.6,3.3,6h-4.6c-0.3-1.3-1-2.5-2-3.4c-1.2-1-2.8-1.6-4.4-1.5c-1.5-0.1-2.9,0.4-4.1,1.3
			c-1,0.9-1.6,2.3-1.5,3.7c-0.1,1.1,0.3,2.2,1,3.1c0.7,0.8,1.5,1.5,2.5,1.9l4.1,1.5c1.7,0.6,3.4,1.2,5.1,2c1.3,0.6,2.5,1.6,3.3,2.8
			c0.9,1.5,1.4,3.2,1.3,5C160.1,85,159.7,86.5,158.9,87.8z"/>
		<path class="st2" d="M192,61.8c2.6,2,4.5,4.9,5.4,8.1h-4.5c-0.8-2.1-2.2-3.9-4.1-5.2c-2-1.3-4.4-2-6.8-1.9c-4.2-0.1-8,2.2-9.8,6
			c-1,2.1-1.5,4.4-1.5,6.8c0,2.3,0.5,4.6,1.5,6.7c1.8,3.8,5.6,6.1,9.8,6c2.4,0.1,4.8-0.6,6.8-1.9c1.9-1.3,3.3-3.1,4.1-5.2h4.5
			c-0.9,3.2-2.8,6.1-5.4,8.1c-2.9,2.1-6.4,3.1-9.9,3c-2.8,0.1-5.6-0.7-8.1-2.1c-2.4-1.4-4.3-3.5-5.5-5.9c-1.4-2.7-2-5.6-2-8.6
			c0-3,0.6-6,2-8.7c1.2-2.4,3.1-4.5,5.5-5.9c2.5-1.4,5.3-2.2,8.1-2.1C185.6,58.8,189.1,59.8,192,61.8z"/>
		<path class="st2" d="M224.2,84.4h-14.5L207,92h-4.6l12.2-32.2h4.8L231.5,92h-4.6L224.2,84.4z M223,81.1l-6-16.6l-6,16.6H223z"/>
		<path class="st2" d="M241.9,88.7h11.6V92h-15.9V59.2h4.2L241.9,88.7z"/>
		<path class="st2" d="M263.9,62.6v11.3h12.5v3.3h-12.5v11.4h13.9V92h-18.1V59.2h18.1v3.4L263.9,62.6z"/>
		<path class="st2" d="M307,60.3c2.1,1,4,2.5,5.4,4.4c1.4,2,2.4,4.2,2.8,6.6h-9.6c-0.5-1.3-1.4-2.4-2.5-3.1
			c-1.2-0.7-2.5-1.1-3.9-1.1c-1.9-0.1-3.7,0.8-4.9,2.3c-1.3,1.7-2,3.8-1.9,6c-0.1,2.2,0.6,4.4,1.9,6.1c1.2,1.5,3,2.4,4.9,2.3
			c1.4,0,2.7-0.3,3.9-1.1c1.1-0.7,2-1.8,2.5-3.1h9.6c-0.6,3.6-2.5,6.9-5.3,9.2c-3,2.3-6.7,3.5-10.5,3.4c-3,0.1-5.9-0.7-8.5-2.1
			c-2.4-1.4-4.3-3.4-5.6-5.9c-2.6-5.5-2.6-11.9,0-17.4c1.3-2.5,3.2-4.5,5.6-5.9c2.6-1.4,5.5-2.2,8.5-2.1
			C302,58.7,304.6,59.2,307,60.3z"/>
		<path class="st2" d="M351.2,59.1V92h-9.1V78.7h-11.2V92h-9.2V59h9.2v12.4h11.2V59.1H351.2z"/>
		<path class="st2" d="M379.4,86.5h-11.7l-1.8,5.5h-9.6l12.1-32.8H379L391,92h-9.7L379.4,86.5z M377.1,79.6l-3.5-10.7L370,79.6
			H377.1z"/>
		<path class="st2" d="M426.4,92h-9.2l-12.1-18.4V92h-9.2V59.1h9.2l12.1,18.6V59.1h9.2L426.4,92z"/>
		<path class="st2" d="M459.7,61.9c2.7,2,4.4,5,4.9,8.3H455c-0.5-0.9-1.3-1.6-2.2-2.1c-1-0.6-2.2-0.8-3.4-0.8c-2-0.1-4,0.8-5.3,2.3
			c-1.4,1.7-2.1,3.8-2,6c0,2.9,0.7,5,2.1,6.5s3.5,2.2,6.2,2.2c1.4,0,2.9-0.3,4.1-1.1c1.2-0.8,2.2-2,2.8-3.3h-9.1v-6.6h16.7v9.1
			c-1.2,2.8-3.2,5.2-5.7,7c-2.9,2-6.3,3-9.8,2.9c-3.1,0.1-6.1-0.6-8.8-2.1c-2.5-1.4-4.5-3.4-5.8-5.9c-2.7-5.5-2.7-11.9,0-17.4
			c1.3-2.5,3.3-4.5,5.8-5.9c2.7-1.5,5.7-2.2,8.8-2.1C453.1,58.7,456.7,59.8,459.7,61.9z"/>
		<path class="st2" d="M480.5,66.4v5.4h10.7v6.9h-10.7v6h12.1V92h-21.3V59h21.2v7.3L480.5,66.4z"/>
		<path class="st2" d="M515.8,92l-6.7-12.1h-0.9V92H499V59h14.5c2.3-0.1,4.6,0.4,6.7,1.4c1.8,0.8,3.2,2.1,4.2,3.8
			c0.9,1.6,1.4,3.5,1.4,5.4c0.1,2.2-0.6,4.3-1.9,6c-1.4,1.8-3.3,3-5.5,3.6l7.5,12.8H515.8z M508.2,73.7h4.5c2.5,0,3.8-1.1,3.8-3.4
			c0.1-1-0.3-1.9-1-2.6c-0.8-0.7-1.9-1-2.9-0.9h-4.5L508.2,73.7z"/>
	</g>
</g>
</svg>
